<?xml version="1.0" standalone="no"?>
<!DOCTYPE svg PUBLIC "-//W3C//DTD SVG 20010904//EN"
 "http://www.w3.org/TR/2001/REC-SVG-20010904/DTD/svg10.dtd">
<svg version="1.0" xmlns="http://www.w3.org/2000/svg"
 width="672.000000pt" height="672.000000pt" viewBox="0 0 672.000000 672.000000"
 preserveAspectRatio="xMidYMid meet">
<metadata>
Created by potrace 1.14, written by Peter Selinger 2001-2017
</metadata>
<g transform="translate(0.000000,672.000000) scale(0.100000,-0.100000)"
fill="#000000" stroke="none">
<path d="M4295 6481 c-20 -17 -70 -28 -93 -20 -13 5 -21 5 -18 1 2 -4 1 -14
-5 -22 -5 -9 -9 -10 -9 -4 0 7 -7 14 -14 17 -11 4 -13 1 -9 -10 4 -11 2 -14
-5 -9 -6 4 -26 -1 -44 -10 -32 -16 -32 -16 -18 1 14 17 14 17 -7 5 -18 -12
-20 -17 -10 -29 10 -12 9 -13 -10 -3 -16 9 -24 9 -29 0 -4 -7 -3 -8 4 -4 7 4
12 5 12 2 0 -3 -10 -10 -21 -17 -15 -8 -19 -8 -15 0 4 6 2 11 -3 11 -6 0 -11
-4 -11 -10 0 -5 -10 -14 -21 -21 -15 -8 -19 -8 -15 0 4 6 2 11 -3 11 -6 0 -11
-7 -11 -15 0 -8 -4 -16 -10 -16 -5 -1 -15 -2 -20 -3 -6 0 -15 -8 -21 -16 -9
-13 -10 -12 -5 3 5 15 3 16 -14 7 -11 -6 -20 -13 -20 -16 0 -3 6 -2 13 1 6 4
-3 -6 -22 -21 -19 -16 -45 -29 -57 -29 -12 0 -26 -4 -31 -9 -5 -5 -3 -6 5 -2
16 10 15 -2 -2 -19 -8 -8 -17 -10 -23 -4 -5 5 -9 1 -9 -10 0 -13 5 -17 16 -13
16 6 15 4 -12 -16 -12 -10 -18 -10 -24 -1 -5 8 -3 9 6 4 9 -5 11 -4 6 4 -10
15 -29 3 -22 -15 6 -16 -10 -28 -19 -14 -5 8 -11 7 -21 -1 -11 -9 -12 -15 -2
-26 9 -11 8 -13 -2 -11 -8 2 -14 -2 -15 -9 0 -7 -6 -18 -14 -25 -10 -10 -12
-10 -7 0 4 7 1 12 -9 12 -15 0 -18 -28 -4 -40 3 -3 -3 -13 -13 -22 -10 -10
-18 -13 -18 -6 0 6 -9 3 -20 -7 -11 -10 -20 -28 -20 -40 0 -12 -12 -32 -27
-46 l-28 -24 22 25 c16 19 19 29 12 40 -8 12 -9 11 -7 -5 2 -12 -2 -19 -10
-17 -8 1 -11 -2 -8 -7 4 -5 2 -12 -3 -15 -5 -3 -7 -15 -4 -25 3 -10 -1 -22 -8
-26 -8 -6 -10 -4 -4 6 7 11 6 12 -7 2 -8 -7 -19 -9 -23 -5 -5 4 -5 1 -1 -6 4
-7 11 -10 16 -7 4 3 10 -2 13 -10 4 -10 1 -12 -10 -8 -10 4 -14 2 -9 -5 3 -6
2 -14 -4 -17 -8 -5 -7 -11 1 -21 11 -13 5 -19 -15 -15 -5 1 -4 -4 2 -12 14
-16 6 -47 -11 -47 -7 0 -7 4 1 12 7 7 12 17 12 22 0 6 -7 3 -15 -7 -7 -10 -11
-29 -9 -43 2 -13 0 -24 -6 -24 -5 0 -10 -5 -10 -11 0 -5 4 -7 10 -4 6 3 7 -1
4 -9 -3 -9 -11 -13 -17 -9 -6 3 -7 1 -3 -5 4 -6 2 -20 -3 -30 -7 -13 -7 -22 1
-30 8 -8 8 -15 -1 -26 -8 -10 -9 -16 -1 -21 6 -3 8 -10 5 -15 -3 -5 1 -22 9
-38 11 -22 12 -32 3 -41 -7 -7 -7 -11 -1 -11 12 0 12 -39 1 -57 -5 -7 -4 -13
2 -13 5 0 8 -9 6 -20 -2 -11 3 -26 11 -34 9 -9 10 -17 4 -21 -5 -3 -10 -12
-10 -18 0 -8 2 -9 8 -1 5 7 14 4 27 -10 21 -22 29 -56 13 -56 -5 0 -7 -4 -4
-8 3 -5 -1 -9 -9 -9 -8 0 -12 4 -10 8 3 4 -2 10 -11 13 -8 3 -12 2 -9 -4 4 -6
-1 -7 -11 -3 -16 6 -15 7 1 19 16 12 15 13 -13 9 -18 -2 -34 1 -38 6 -3 6 -11
5 -21 -2 -12 -10 -16 -10 -23 1 -6 10 -12 11 -22 4 -7 -6 -25 -9 -40 -8 -16 2
-28 -1 -28 -6 0 -4 -7 -11 -16 -14 -15 -6 -15 -4 -3 11 13 17 13 17 -12 1 -20
-13 -29 -14 -39 -5 -10 9 -11 9 -6 0 5 -10 1 -11 -17 -4 -14 6 -29 7 -33 3 -5
-4 -3 0 4 9 6 9 9 18 6 22 -9 8 -35 -4 -29 -13 8 -13 -21 -5 -41 10 -10 8 -15
10 -11 3 5 -7 -1 -17 -14 -23 -12 -7 -19 -8 -16 -3 3 5 -4 9 -16 8 -12 -2 -21
-6 -20 -11 1 -5 -9 -14 -22 -20 -20 -10 -23 -9 -18 5 3 9 -5 3 -17 -14 -12
-16 -20 -23 -17 -14 3 9 -1 16 -9 16 -7 0 -11 -4 -8 -9 10 -15 -16 -36 -41
-33 -15 1 -22 -2 -18 -8 4 -7 0 -8 -12 -3 -15 5 -16 4 -6 -8 9 -11 9 -16 0
-22 -7 -4 -10 -3 -7 2 7 10 -17 36 -25 27 -6 -6 1 46 8 56 2 4 -8 11 -21 18
-13 6 -22 7 -18 2 3 -5 1 -9 -5 -9 -5 0 -13 5 -16 10 -4 7 -14 6 -28 -2 -12
-7 -25 -12 -28 -11 -3 1 -6 -5 -6 -13 0 -11 4 -11 21 3 21 18 21 18 2 -4 -20
-24 -53 -32 -40 -10 4 7 3 9 -2 4 -5 -5 -9 -18 -10 -30 0 -25 -24 -67 -38 -67
-5 0 0 11 12 23 17 18 19 24 8 24 -8 0 -13 -4 -11 -8 3 -3 -2 -12 -10 -19 -12
-10 -13 -16 -4 -27 9 -11 9 -12 -3 -8 -9 4 -18 -1 -22 -10 -3 -9 -2 -13 4 -10
6 3 7 -1 4 -10 -5 -12 -9 -13 -20 -4 -12 9 -13 9 -9 -4 4 -8 1 -18 -6 -23 -7
-4 -10 -3 -5 4 3 6 2 13 -3 17 -6 3 -8 -6 -5 -21 4 -23 3 -25 -10 -15 -11 9
-16 9 -22 0 -4 -8 -3 -9 4 -5 7 4 12 1 12 -9 0 -9 -4 -13 -10 -10 -9 6 -14 -8
-11 -28 1 -5 -3 -6 -9 -2 -5 3 -10 1 -10 -6 0 -7 -3 -9 -6 -6 -4 4 -1 13 5 21
9 11 9 16 0 22 -7 4 -9 3 -6 -3 4 -6 -5 -15 -19 -22 -14 -6 -23 -7 -19 -2 3 6
-7 8 -22 6 -16 -2 -32 -4 -37 -4 -4 -1 -6 -7 -3 -15 4 -11 0 -13 -15 -11 -12
3 -24 8 -27 13 -3 5 -14 11 -23 15 -11 4 -15 12 -12 22 3 8 1 15 -6 15 -6 0
-10 10 -8 22 2 15 -4 26 -20 34 -29 14 -68 56 -64 67 1 5 -5 16 -15 24 -10 8
-12 11 -4 7 9 -5 8 2 -5 19 -12 17 -26 25 -37 23 -13 -3 -15 -1 -8 8 7 8 5 12
-10 13 -13 1 -17 -2 -12 -10 4 -7 0 -6 -10 2 -9 7 -14 17 -11 22 3 5 -2 9 -11
9 -10 0 -15 6 -12 13 3 8 1 20 -5 28 -8 11 -9 10 -4 -3 3 -10 1 -18 -4 -18 -6
0 -10 6 -10 14 0 22 -19 30 -36 15 -12 -10 -13 -9 -8 4 3 10 -3 19 -18 27 -22
11 -22 10 -4 -4 11 -9 15 -16 9 -16 -17 0 -35 28 -27 42 5 10 4 11 -7 1 -17
-17 -30 -16 -23 1 3 7 -2 16 -10 19 -11 4 -16 1 -17 -11 0 -13 -3 -11 -9 6 -5
12 -12 22 -15 22 -4 0 -3 -4 0 -10 3 -5 1 -10 -4 -10 -6 0 -11 5 -11 11 0 6
-7 8 -16 5 -12 -5 -15 -2 -10 10 5 14 4 15 -8 5 -10 -9 -16 -9 -21 -1 -5 8
-10 8 -20 0 -10 -8 -15 -8 -20 0 -5 8 -11 7 -23 -2 -13 -11 -15 -11 -9 4 4 13
1 16 -14 13 -10 -2 -19 1 -19 7 0 6 -7 5 -17 -3 -9 -8 -17 -13 -17 -12 -1 1
-14 6 -29 12 -16 6 -26 7 -22 2 3 -6 -4 -9 -15 -8 -11 1 -20 5 -20 10 0 5 -7
3 -17 -4 -9 -8 -19 -12 -22 -10 -20 12 -51 20 -46 11 8 -12 -5 -13 -25 0 -9 6
-19 5 -28 -2 -10 -9 -15 -9 -21 1 -6 9 -10 7 -14 -8 -3 -12 -11 -21 -19 -21
-10 0 -9 3 2 10 13 8 12 10 -2 10 -10 0 -18 -4 -18 -9 0 -12 -43 -8 -52 4 -5
6 -8 6 -8 -1 0 -7 -7 -15 -16 -18 -15 -6 -15 -4 -3 11 13 16 12 17 -4 4 -10
-8 -16 -20 -13 -27 4 -10 -1 -11 -21 -3 -21 8 -24 7 -15 -4 8 -10 6 -13 -11
-13 -12 0 -25 5 -29 10 -5 7 -8 6 -8 -2 0 -7 -4 -11 -9 -8 -5 3 -14 -1 -21 -9
-7 -8 -16 -12 -21 -10 -4 3 -6 -4 -4 -16 4 -18 2 -19 -12 -7 -14 11 -16 11 -8
-1 6 -11 4 -13 -9 -8 -10 4 -19 1 -22 -8 -4 -8 -12 -15 -20 -15 -8 0 -14 -8
-14 -17 0 -15 -2 -14 -15 3 -10 12 -14 14 -13 4 2 -8 -3 -14 -11 -15 -8 0 -16
-7 -18 -15 -4 -13 -3 -13 6 0 10 13 11 13 11 0 0 -19 -43 -40 -62 -29 -10 5
-15 3 -15 -6 0 -8 4 -12 8 -9 4 2 11 -1 15 -7 4 -8 3 -9 -4 -5 -7 4 -12 2 -12
-5 0 -9 -3 -9 -14 0 -11 9 -16 9 -22 0 -4 -8 -3 -9 4 -5 7 4 12 1 12 -9 0 -9
-4 -13 -10 -10 -9 6 -14 -8 -11 -28 1 -5 -3 -6 -9 -2 -6 3 -8 10 -5 15 3 5 1
11 -4 15 -6 3 -8 -5 -5 -18 2 -16 -4 -31 -21 -47 -13 -13 -22 -26 -20 -30 7
-11 -18 -29 -43 -33 -12 -2 -25 -7 -29 -12 -5 -4 -3 -5 4 -1 8 4 11 -1 10 -13
-1 -16 -4 -18 -16 -8 -12 9 -13 9 -7 0 12 -21 -3 -36 -21 -21 -15 12 -15 11
-3 -9 8 -12 18 -19 24 -16 5 3 6 1 2 -5 -3 -6 -15 -9 -26 -7 -12 2 -18 0 -15
-5 3 -5 0 -10 -7 -13 -7 -2 -5 -3 5 -2 9 2 17 -1 17 -6 0 -5 -4 -9 -10 -9 -5
0 -10 -7 -10 -16 0 -8 -4 -12 -10 -9 -5 3 -10 1 -10 -5 0 -6 -4 -9 -9 -6 -5 4
-7 -3 -4 -14 3 -11 0 -20 -6 -20 -6 0 -11 -5 -11 -11 0 -5 4 -8 9 -5 11 7 8
-21 -4 -31 -4 -4 -5 -1 -1 7 5 9 2 8 -7 -2 -8 -10 -18 -14 -22 -10 -5 4 -5 1
-1 -6 4 -7 11 -10 16 -7 11 7 7 -22 -5 -32 -4 -4 -5 -2 -1 5 4 7 1 12 -8 12
-19 0 -20 -11 -4 -29 11 -11 10 -13 -5 -8 -10 4 -15 3 -12 -2 3 -5 -5 -17 -17
-25 -12 -9 -18 -16 -12 -16 5 0 10 -11 10 -24 0 -14 -4 -22 -10 -19 -5 4 -7
-1 -3 -10 4 -10 2 -17 -4 -17 -6 0 -9 -6 -6 -14 3 -7 1 -18 -5 -24 -6 -6 -6
-12 2 -17 8 -5 6 -13 -7 -28 -10 -11 -12 -17 -5 -13 6 4 12 2 12 -3 0 -6 -4
-11 -9 -11 -5 0 -12 -7 -15 -16 -4 -10 -2 -13 7 -8 9 6 9 5 0 -7 -10 -12 -10
-18 0 -29 9 -10 9 -11 0 -6 -13 7 -14 6 -17 -54 -1 -20 -5 -41 -10 -48 -4 -7
-2 -12 4 -12 6 0 8 -5 5 -10 -4 -6 -9 -8 -13 -6 -14 8 -7 -121 7 -138 12 -15
12 -16 -5 -9 -16 6 -17 4 -7 -9 7 -8 10 -18 6 -21 -3 -4 -1 -7 4 -7 12 0 12
-18 1 -36 -4 -6 1 -20 10 -30 10 -10 17 -31 17 -46 -1 -16 2 -28 7 -28 5 0 8
-8 6 -17 -2 -10 2 -23 10 -28 18 -14 22 -47 8 -64 -9 -12 -8 -13 3 -6 11 6 13
4 8 -9 -4 -11 -3 -15 4 -11 6 4 10 1 8 -6 -3 -27 1 -39 15 -39 10 0 13 -7 11
-20 -3 -13 0 -18 7 -14 8 5 9 1 5 -10 -6 -14 -3 -17 9 -12 15 6 15 4 3 -11
-12 -14 -12 -16 0 -8 11 6 13 4 7 -10 -5 -15 -4 -16 8 -6 13 11 15 9 11 -9 -3
-17 0 -20 12 -16 14 6 14 4 2 -10 -13 -16 -12 -16 10 -5 13 7 21 9 18 4 -7
-11 3 -25 28 -39 11 -6 21 -21 23 -33 3 -18 6 -20 18 -10 12 10 13 9 8 -6 -5
-12 -4 -16 3 -12 6 4 14 0 17 -9 4 -10 2 -13 -7 -8 -6 4 -2 -3 10 -15 12 -11
26 -21 30 -21 4 0 2 5 -5 12 -7 7 -12 16 -12 22 0 5 6 1 14 -10 9 -12 11 -23
5 -30 -6 -8 -2 -10 16 -6 18 3 25 0 25 -11 0 -8 7 -18 16 -21 10 -4 13 -2 9 7
-4 6 0 4 8 -5 16 -20 32 -25 21 -6 -4 7 -3 8 4 4 6 -4 9 -13 6 -21 -4 -10 1
-12 18 -8 18 4 20 3 8 -6 -13 -9 -12 -11 3 -11 12 0 16 -5 11 -12 -5 -10 -4
-10 7 0 11 10 16 8 27 -10 7 -13 11 -16 8 -7 -3 13 0 15 16 11 15 -4 17 -7 6
-13 -10 -7 -9 -9 5 -9 12 0 16 -4 11 -12 -6 -10 -5 -10 8 0 12 10 18 9 28 -3
9 -11 17 -12 32 -4 16 9 19 8 13 -2 -6 -9 -3 -10 9 -6 13 5 17 3 13 -6 -4 -10
4 -13 29 -12 19 2 36 0 39 -4 2 -4 30 -7 62 -6 32 1 61 -3 66 -9 4 -7 10 -8
15 -1 10 13 75 14 84 0 5 -6 8 -5 8 3 0 7 5 10 10 7 6 -4 17 -1 25 5 8 6 19 9
24 6 5 -4 12 -2 16 4 4 6 11 5 19 -3 8 -6 12 -15 9 -19 -2 -5 0 -8 6 -8 5 0 8
-11 5 -24 -2 -14 0 -27 5 -31 5 -3 8 -17 5 -31 -3 -14 0 -32 7 -40 9 -11 8
-18 -1 -29 -11 -13 -10 -14 6 -8 16 6 17 4 7 -9 -7 -8 -10 -18 -6 -22 12 -12
12 -36 0 -36 -8 0 -8 -3 -2 -8 12 -8 13 -22 2 -38 -4 -7 0 -17 8 -24 8 -7 12
-17 9 -22 -4 -6 0 -15 7 -20 11 -7 11 -11 1 -15 -6 -2 -9 -10 -5 -16 12 -20
14 -47 2 -47 -5 0 -7 -5 -3 -11 10 -17 12 -109 1 -109 -4 0 -5 -5 -1 -11 10
-17 12 -109 1 -109 -4 0 -5 -5 -1 -11 10 -17 12 -109 1 -109 -4 0 -5 -5 -1
-11 11 -18 11 -109 1 -109 -5 0 -5 -6 1 -13 7 -8 7 -18 2 -27 -5 -8 -7 -17 -4
-21 2 -4 -3 -12 -11 -19 -8 -7 -15 -9 -15 -5 0 4 -8 1 -17 -6 -15 -12 -16 -12
-8 1 7 12 6 13 -6 3 -11 -9 -19 -9 -26 -2 -7 7 -16 5 -28 -8 -22 -21 -35 -23
-54 -9 -11 8 -13 8 -8 -1 5 -7 -1 -16 -13 -23 -13 -7 -20 -7 -20 0 0 5 5 10
12 10 6 0 8 3 5 7 -4 3 -15 -1 -25 -10 -10 -9 -28 -18 -40 -20 -12 -2 -25 -7
-29 -12 -5 -4 -2 -5 5 -1 6 4 12 3 12 -2 0 -5 -9 -12 -20 -15 -11 -3 -20 -13
-20 -23 0 -16 1 -16 16 2 15 19 16 19 9 0 -6 -19 -5 -19 13 -3 10 9 24 17 30
17 7 0 12 5 12 11 0 5 5 7 10 4 6 -4 7 -12 3 -19 -4 -7 0 -3 11 9 10 11 21 20
25 20 3 0 5 4 3 9 -2 5 5 3 14 -5 21 -18 18 -18 44 11 12 14 19 19 15 12 -8
-15 11 -16 21 -1 4 8 9 7 15 -2 6 -10 11 -11 16 -3 5 5 19 10 33 9 28 -2 83
-23 61 -24 -11 -1 -11 -4 0 -18 12 -15 12 -16 -1 -8 -12 7 -13 6 -5 -6 6 -8
10 -23 10 -34 0 -11 6 -26 15 -33 13 -12 12 -13 -5 -8 -19 6 -19 5 -3 -7 10
-8 15 -17 11 -20 -3 -4 2 -9 11 -13 9 -3 14 -10 11 -14 -3 -5 -1 -11 4 -15 6
-3 8 -12 4 -20 -3 -8 0 -15 6 -15 6 0 11 -5 11 -11 0 -5 -6 -7 -12 -3 -9 5 -9
3 1 -9 7 -9 18 -14 24 -10 6 4 7 1 2 -7 -4 -7 -2 -16 6 -21 11 -7 11 -11 2
-17 -9 -5 -6 -12 10 -21 20 -13 21 -13 8 2 -7 10 -9 17 -3 17 15 0 22 -26 9
-39 -8 -8 -7 -11 3 -11 10 0 11 -3 3 -11 -6 -6 -9 -18 -6 -27 4 -10 2 -13 -5
-8 -6 3 -14 1 -18 -5 -4 -8 -3 -9 4 -5 7 4 12 2 12 -5 0 -6 -8 -9 -20 -6 -11
3 -17 1 -14 -4 3 -5 -2 -12 -10 -15 -9 -3 -13 -11 -9 -17 4 -6 0 -8 -10 -4
-11 4 -15 1 -12 -14 4 -17 -6 -24 -28 -20 -5 1 -6 -3 -2 -9 3 -6 12 -8 18 -4
7 3 4 -1 -6 -9 -9 -8 -17 -19 -17 -25 0 -5 -7 -13 -16 -16 -8 -3 -13 -10 -9
-15 3 -6 -3 -8 -15 -6 -11 2 -22 -1 -26 -6 -3 -5 -2 -9 3 -8 4 1 15 1 23 0 13
-1 13 -2 0 -11 -14 -9 -22 -70 -9 -70 4 0 14 11 23 25 9 14 20 24 24 21 4 -2
8 4 8 15 0 10 -5 19 -10 19 -5 0 -1 6 9 14 10 7 16 20 12 28 -4 12 1 14 26 12
23 -3 28 -1 17 5 -8 6 -18 7 -24 4 -5 -3 -6 -1 -2 6 4 6 12 9 17 6 5 -4 9 1 9
10 0 9 5 13 10 10 6 -3 10 -1 10 5 0 6 4 8 10 5 6 -3 7 1 3 10 -4 13 -7 14
-14 3 -6 -9 -8 -6 -7 9 2 17 6 20 25 12 18 -7 21 -5 16 8 -4 11 -2 14 5 9 8
-5 10 -2 6 9 -7 17 16 17 28 0 4 -6 8 -2 8 8 0 16 2 17 15 3 8 -8 15 -19 15
-25 0 -10 14 -15 33 -12 5 1 6 -3 2 -9 -3 -6 -10 -8 -15 -5 -5 3 -11 1 -14 -4
-3 -4 4 -8 17 -7 14 1 21 -4 19 -13 -2 -9 3 -11 14 -7 15 6 15 4 3 -11 -8 -9
-9 -14 -2 -10 7 4 17 0 23 -10 9 -15 10 -14 5 7 l-5 25 11 -25 c21 -47 25 -54
40 -57 8 -3 7 0 -4 7 -9 6 -17 15 -17 20 0 6 11 0 25 -12 13 -11 22 -25 19
-30 -3 -4 0 -8 7 -8 6 0 20 -10 31 -22 14 -17 21 -19 27 -10 5 9 11 5 19 -13
7 -16 17 -23 24 -19 7 5 9 2 5 -8 -4 -12 -1 -14 14 -11 21 6 27 -12 7 -21 -7
-3 -2 -3 11 0 18 5 22 3 15 -7 -6 -10 -3 -10 11 1 10 8 16 10 13 5 -4 -6 2
-17 14 -24 11 -7 17 -8 14 -3 -3 6 2 8 14 5 11 -3 20 -10 20 -15 0 -5 -5 -6
-12 -2 -7 5 -8 3 -4 -5 5 -7 11 -10 14 -7 3 3 12 0 20 -7 13 -10 14 -9 7 2 -5
10 -4 12 3 7 7 -4 12 -13 12 -21 0 -8 4 -17 10 -20 6 -3 7 1 4 10 -5 11 -2 14
10 9 9 -3 16 -11 16 -16 0 -6 7 -5 15 2 13 11 14 10 8 -5 -5 -14 -3 -17 10
-12 9 3 17 2 17 -4 0 -6 9 -5 23 2 12 6 19 8 15 4 -4 -4 2 -16 14 -26 25 -22
32 -24 22 -7 -6 10 -4 10 7 2 8 -6 22 -10 32 -9 9 2 14 -1 11 -6 -3 -6 5 -8
19 -5 17 3 28 -1 32 -12 5 -14 7 -14 15 -2 7 10 10 11 10 3 0 -7 9 -13 19 -13
11 0 23 -5 27 -11 3 -6 15 -9 25 -6 14 4 19 0 19 -13 0 -10 3 -27 7 -37 7 -17
6 -17 -11 -1 -20 21 -31 24 -20 6 5 -8 2 -9 -10 -5 -9 4 -15 3 -12 -1 7 -12
-34 -44 -49 -38 -9 3 -11 -2 -8 -17 3 -16 2 -18 -5 -9 -7 11 -10 9 -15 -7 -4
-15 -10 -19 -23 -14 -11 4 -15 3 -11 -4 4 -6 0 -16 -8 -23 -13 -11 -14 -10 -9
6 4 14 3 15 -4 6 -5 -8 -8 -27 -7 -43 1 -16 -2 -29 -9 -29 -6 0 -5 -4 3 -9 7
-5 11 -13 7 -19 -3 -6 -2 -13 4 -17 6 -4 8 -10 5 -15 -3 -5 -1 -11 5 -15 5 -3
10 -11 10 -16 0 -6 -5 -7 -11 -3 -8 5 -8 1 0 -13 6 -11 7 -24 3 -28 -4 -5 1
-5 11 -2 11 4 16 3 12 -3 -3 -6 -1 -10 5 -10 6 0 9 -4 5 -9 -3 -6 4 -8 15 -6
11 2 18 0 15 -6 -4 -5 1 -9 9 -9 16 0 22 -15 9 -23 -5 -2 -2 -2 6 0 22 6 29
-15 21 -54 -8 -34 -33 -62 -58 -63 -6 0 -21 9 -32 20 -11 11 -24 20 -30 20 -5
0 -7 6 -4 14 4 11 0 13 -15 9 -22 -6 -30 12 -9 19 7 3 5 7 -6 11 -10 4 -15 3
-11 -3 3 -6 1 -10 -4 -10 -6 0 -11 6 -11 14 0 8 -5 18 -12 22 -7 4 -8 3 -4 -4
9 -15 -23 -4 -46 15 -9 8 -18 10 -21 6 -7 -11 -48 -10 -67 2 -9 6 -11 4 -5 -5
6 -10 4 -12 -9 -7 -11 5 -15 3 -10 -5 5 -8 2 -9 -10 -5 -10 4 -15 3 -11 -3 3
-6 2 -10 -3 -10 -6 0 -9 -8 -8 -17 0 -10 -5 -17 -12 -15 -10 2 -10 -2 -1 -19
10 -20 9 -21 -10 -16 -18 4 -20 3 -10 -9 9 -11 9 -14 0 -14 -7 0 -10 -4 -7 -8
2 -4 1 -14 -4 -22 -6 -9 -2 -20 12 -32 20 -17 20 -18 2 -19 -16 0 -16 -1 -3
-7 11 -5 15 -17 13 -37 -2 -19 0 -25 5 -16 5 7 14 10 20 6 9 -5 9 -11 -1 -23
-8 -10 -9 -13 -1 -9 6 4 14 3 18 -3 3 -5 1 -10 -5 -10 -6 0 -4 -7 5 -16 9 -9
13 -24 10 -33 -5 -13 -4 -14 6 -3 7 6 18 12 23 12 6 0 4 -4 -4 -10 -12 -7 -10
-12 10 -31 14 -11 24 -25 22 -31 -1 -5 5 -16 13 -25 9 -8 14 -22 10 -31 -4
-12 -3 -13 10 -2 9 7 18 10 22 6 3 -3 1 -6 -5 -6 -7 0 -12 -4 -12 -10 0 -5 7
-10 16 -10 12 0 15 -7 12 -25 -4 -20 -2 -23 7 -15 10 8 15 7 21 -1 4 -8 3 -9
-4 -5 -7 4 -12 2 -12 -3 0 -6 7 -11 16 -11 8 0 12 -5 9 -11 -4 -6 0 -9 8 -7 9
2 15 0 14 -3 -1 -3 4 -13 11 -22 8 -9 11 -20 9 -25 -3 -4 -1 -14 5 -22 8 -12
9 -12 4 2 -3 12 -1 15 9 11 8 -3 12 -9 9 -14 -3 -5 0 -9 6 -9 7 0 10 -6 7 -14
-4 -10 1 -13 19 -11 20 2 23 -1 18 -17 -3 -10 -2 -18 3 -17 26 4 35 -1 24 -15
-9 -11 -9 -16 0 -22 8 -4 9 -3 5 4 -5 8 1 11 18 10 28 -3 34 -13 14 -22 -7 -3
-2 -3 11 0 15 4 21 2 17 -4 -3 -6 -1 -14 5 -18 8 -4 9 -3 5 4 -11 18 10 14 29
-4 21 -21 141 -22 128 -1 -3 4 4 11 16 14 12 3 21 13 21 22 0 14 2 14 10 1 9
-13 14 -7 11 12 0 5 2 7 7 7 4 -1 14 -1 22 0 12 1 12 3 2 10 -9 5 -3 8 17 7
17 -1 31 -4 31 -8 0 -4 9 -5 19 -3 11 2 22 -3 25 -11 3 -7 12 -11 20 -8 8 3
23 1 33 -5 11 -5 25 -6 32 -2 14 9 71 -7 82 -23 4 -4 10 -3 13 3 5 7 13 8 23
2 9 -4 24 -6 34 -4 11 3 19 0 19 -6 0 -7 5 -9 10 -6 6 3 15 3 21 -1 15 -9 119
-11 119 -1 0 4 9 3 20 -3 11 -6 20 -7 20 -2 0 5 18 6 40 2 22 -4 40 -3 40 2 0
5 9 4 20 -2 11 -6 20 -7 20 -2 0 5 18 6 40 2 22 -4 40 -3 40 2 0 5 9 4 20 -2
11 -6 20 -7 20 -3 0 4 56 7 125 7 98 -1 129 2 140 13 9 8 15 10 15 3 0 -8 6
-8 21 1 17 9 23 8 30 -2 5 -8 9 -9 9 -4 0 6 16 10 35 11 19 0 35 -4 35 -9 0
-5 6 -5 13 2 10 8 17 7 25 -1 8 -8 15 -8 24 -1 7 6 21 9 31 8 9 -2 17 1 17 7
0 7 5 6 14 -1 10 -8 16 -8 25 2 6 8 21 13 33 12 13 -1 29 5 37 12 7 8 16 11
19 8 4 -3 0 -10 -8 -15 -8 -6 -10 -10 -4 -10 6 0 17 6 23 14 12 15 28 16 48 3
6 -4 14 -3 17 2 7 10 25 9 42 -2 6 -3 14 -4 18 0 3 3 27 7 52 8 27 1 49 7 55
16 7 12 9 12 9 -1 0 -10 3 -11 8 -4 4 6 28 10 54 8 27 -1 46 2 43 6 -8 12 21
20 33 8 6 -6 12 -6 16 1 4 6 12 11 17 11 6 0 7 -6 3 -12 -6 -10 -5 -10 8 -1 8
7 19 9 23 5 5 -4 6 0 3 8 -4 11 0 16 13 16 14 0 16 -3 6 -16 -8 -10 -5 -10 9
2 11 10 30 16 41 13 15 -2 20 1 17 9 -5 14 32 16 52 3 6 -3 14 -3 18 1 4 4 12
8 17 8 5 1 11 3 14 4 8 4 24 7 40 9 8 0 15 6 15 12 0 5 -5 7 -12 3 -6 -4 -8
-3 -5 2 5 8 50 10 67 4 6 -3 9 -2 45 4 16 3 32 10 35 17 6 8 9 7 13 -2 5 -11
8 -10 17 4 12 19 35 24 24 4 -5 -8 -2 -8 9 2 9 7 17 21 17 29 0 13 3 12 16 -4
8 -10 13 -13 9 -6 -3 6 -1 13 4 13 6 1 16 2 21 3 6 0 14 6 18 11 4 6 13 11 21
13 12 3 12 1 0 -15 -13 -17 -13 -17 7 0 11 9 24 14 29 10 4 -5 6 -1 3 8 -5 12
1 15 26 14 17 -1 37 3 45 9 10 7 13 8 8 0 -3 -6 0 -11 8 -11 10 0 11 5 4 18
-7 14 -6 17 5 13 8 -3 17 -1 20 5 4 6 13 8 21 4 10 -3 15 1 15 13 0 11 4 15 8
9 10 -13 35 -18 27 -5 -3 5 2 13 12 17 10 3 27 13 37 22 18 15 19 15 13 -2 -4
-11 -3 -16 3 -12 6 3 10 12 10 20 0 8 5 17 12 21 6 4 8 3 4 -4 -3 -6 -2 -14 4
-17 6 -4 10 -3 9 2 -1 4 -1 16 0 26 1 17 2 17 17 3 19 -19 25 -20 18 -3 -4 10
7 13 42 12 39 -1 48 2 57 22 8 18 13 20 19 11 8 -10 11 -10 15 0 2 6 10 9 16
5 6 -4 8 -1 5 9 -5 11 2 14 33 13 21 -1 36 2 33 7 -11 17 17 35 50 33 28 -2
33 0 28 14 -5 14 -3 14 10 3 19 -15 34 0 22 21 -6 9 -4 9 8 -1 14 -11 20 -9
40 18 21 29 23 30 37 13 12 -16 13 -16 8 -1 -4 10 0 21 7 25 6 5 20 19 29 33
9 13 17 20 17 14 0 -5 -6 -16 -12 -23 -10 -11 -10 -13 0 -7 7 4 12 2 12 -6 0
-10 2 -10 9 1 5 7 6 22 4 32 -5 18 6 24 31 20 5 -1 3 6 -5 15 -8 10 -9 15 -3
11 14 -8 47 26 37 37 -5 4 -9 16 -9 27 -3 37 -4 39 -23 39 -11 0 -23 5 -27 12
-5 7 -3 8 6 3 9 -5 11 -4 6 3 -4 6 -20 10 -36 8 -16 -2 -27 1 -24 5 5 9 0 10
-45 13 -11 0 -23 5 -28 10 -5 5 -2 6 6 1 9 -5 12 -4 8 2 -4 5 -24 9 -46 8 -22
-1 -46 2 -53 6 -11 7 -11 9 0 9 7 0 11 4 7 9 -3 5 -1 12 3 15 5 3 8 21 6 41
-1 23 1 33 8 29 7 -5 8 -2 3 6 -11 18 -13 60 -3 66 5 3 5 13 0 22 -9 21 -9 43
1 59 4 6 1 18 -7 26 -11 11 -12 17 -3 27 9 10 9 11 0 6 -6 -3 -14 -2 -18 4 -3
5 -1 10 6 10 8 0 7 5 -2 17 -12 15 -12 16 1 8 13 -8 13 -7 1 9 -13 15 -13 19
0 27 11 7 11 9 0 9 -8 0 -11 6 -7 16 4 9 2 13 -5 8 -8 -4 -9 1 -4 16 5 15 4
20 -4 16 -6 -4 -11 -3 -11 3 0 5 5 11 10 13 6 2 2 13 -10 26 -11 12 -16 22
-10 22 5 0 10 5 10 11 0 5 -4 8 -9 5 -12 -8 -8 27 4 36 6 5 5 8 -3 8 -7 0 -10
5 -7 10 3 6 -2 10 -12 10 -10 0 -14 3 -8 8 13 9 13 27 1 39 -5 5 -6 3 -2 -4 5
-9 2 -11 -9 -7 -14 6 -14 8 2 21 10 8 13 12 7 9 -7 -3 -15 1 -18 10 -4 10 -2
13 7 8 6 -4 3 3 -7 15 -19 21 -19 22 -1 15 18 -7 18 -7 -1 13 -10 11 -22 18
-26 16 -4 -2 -5 4 -1 13 4 10 2 15 -4 11 -11 -7 -11 22 2 42 6 10 4 12 -5 6
-9 -6 -12 -4 -8 6 3 9 -3 26 -14 40 -11 13 -16 18 -12 10 5 -9 3 -12 -4 -7 -7
4 -12 16 -12 27 0 10 -4 19 -10 19 -5 0 -10 8 -10 18 0 10 -6 24 -12 31 -11
11 -10 12 2 6 13 -8 13 -6 1 8 -7 9 -18 14 -25 10 -7 -4 -7 -1 1 8 10 12 9 20
-3 37 -8 12 -20 20 -25 17 -5 -4 -12 1 -15 9 -3 9 -11 13 -17 9 -6 -3 -7 -1
-3 6 6 9 11 9 22 0 12 -10 13 -9 8 5 -3 9 -10 17 -15 17 -5 1 -15 2 -21 3 -14
2 -14 8 -2 41 l7 20 -17 -20 c-14 -17 -15 -18 -10 -2 5 13 1 20 -13 23 -11 3
-26 17 -33 30 -8 13 -17 24 -22 24 -4 0 -8 5 -8 11 0 8 5 7 15 -1 9 -7 18 -10
22 -6 3 3 1 6 -6 6 -7 0 -9 5 -6 10 4 6 3 10 -2 9 -21 -4 -43 2 -43 11 0 5 7
7 15 4 8 -4 15 -1 15 6 0 6 -4 9 -9 6 -5 -3 -21 6 -35 19 -23 21 -24 25 -9 26
15 0 15 2 3 7 -19 9 -26 36 -7 29 10 -4 13 1 10 17 -3 14 3 28 14 37 17 13 17
13 3 -6 -14 -19 -14 -19 2 -6 10 7 16 17 13 21 -3 4 1 20 9 35 10 18 16 22 20
13 3 -7 4 0 2 17 -4 28 -3 29 11 10 15 -19 15 -19 8 4 -6 18 -4 22 6 15 12 -6
12 -5 1 8 -10 12 -9 18 3 28 8 7 12 17 8 23 -4 6 0 8 11 4 10 -4 15 -3 11 4
-4 5 -1 18 6 27 10 12 6 11 -10 -3 l-23 -20 20 34 c11 18 18 40 15 47 -3 9 2
12 16 9 14 -2 18 1 14 11 -3 8 -9 14 -14 14 -5 0 0 9 12 21 15 15 18 24 10 32
-14 14 -14 27 0 27 5 0 7 -5 3 -12 -4 -7 -3 -8 5 -4 6 4 8 12 5 18 -4 6 0 14
7 19 8 5 9 9 3 9 -12 0 -12 29 0 48 4 7 3 19 -3 26 -7 9 -7 16 1 24 8 8 8 12
1 12 -13 0 -12 52 1 62 6 4 5 12 -2 20 -9 11 -9 17 0 26 8 8 8 12 2 12 -12 0
-12 39 -1 58 5 6 5 18 0 25 -11 17 -11 49 0 71 6 13 6 16 -3 11 -8 -5 -11 1
-8 21 2 20 -1 28 -11 26 -9 -2 -12 4 -8 18 3 11 1 18 -3 15 -5 -3 -11 -1 -15
5 -3 5 -1 10 5 10 8 0 8 6 0 20 -8 15 -8 20 2 20 9 0 9 3 -2 10 -8 5 -11 10
-7 10 4 0 3 9 -3 20 -9 16 -8 19 7 14 17 -5 17 -5 0 6 -9 6 -15 15 -12 20 3 5
1 11 -5 15 -6 4 -7 11 -4 17 4 6 2 8 -4 4 -6 -3 -13 -2 -17 4 -3 5 0 10 7 10
10 0 10 2 -1 9 -7 5 -10 14 -7 20 4 6 2 11 -5 11 -7 0 -10 3 -6 6 3 4 0 13 -8
20 -8 8 -12 21 -9 29 4 9 0 15 -7 15 -11 0 -11 3 1 10 9 6 10 10 3 10 -6 0
-10 8 -8 19 4 21 -29 81 -45 81 -7 0 -7 8 1 23 11 20 11 21 -5 8 -9 -8 -16
-10 -15 -5 5 26 -2 45 -13 38 -9 -6 -9 -3 0 9 15 17 9 37 -11 37 -8 0 -8 -3 2
-9 8 -5 9 -11 3 -15 -13 -8 -23 19 -11 31 6 6 -2 21 -21 41 -29 31 -39 49 -21
37 5 -3 13 0 17 7 4 7 4 10 -1 6 -12 -11 -47 12 -41 27 3 10 0 12 -12 8 -9 -3
-14 -3 -10 2 4 4 1 20 -8 36 -19 37 -10 38 10 2 8 -16 15 -23 16 -18 0 6 -7
20 -15 31 -8 12 -11 25 -7 29 4 4 -3 2 -16 -4 -22 -12 -23 -11 -13 8 16 29 13
38 -4 15 -13 -16 -14 -16 -9 -1 4 10 1 17 -5 17 -7 0 -11 6 -10 13 3 19 -12
47 -26 47 -7 0 -15 6 -18 14 -4 11 0 13 15 11 11 -3 17 -1 14 3 -4 4 -12 8
-17 8 -5 1 -13 2 -19 3 -5 0 -10 8 -10 16 0 13 -12 19 -32 16 -4 0 -4 7 -1 16
5 13 2 15 -12 10 -14 -6 -15 -5 -7 6 11 13 2 37 -14 40 -5 1 -8 5 -6 10 1 4
-5 7 -15 7 -9 0 -13 3 -10 7 4 3 -1 12 -11 20 -9 8 -12 12 -5 8 9 -4 8 3 -2
21 -8 15 -12 31 -9 36 3 4 0 8 -6 8 -7 0 -9 -8 -5 -20 4 -12 2 -20 -5 -20 -6
0 -8 5 -5 10 3 6 2 10 -3 10 -7 0 -8 16 -3 50 2 11 41 9 41 -2 0 -5 9 0 21 13
11 13 17 18 13 10 -5 -10 -3 -12 5 -7 7 5 10 14 7 22 -3 8 0 11 9 7 8 -3 12
-10 8 -16 -3 -6 -1 -7 6 -3 6 4 9 11 6 16 -3 5 -1 11 4 14 5 4 12 2 16 -4 3
-5 11 -10 16 -10 6 0 3 7 -5 16 -20 19 -20 24 0 24 9 0 13 -5 9 -12 -4 -7 2
-3 13 9 11 12 22 19 26 16 3 -4 6 -1 6 6 0 7 5 9 13 5 7 -5 7 -1 -3 12 -8 10
-10 16 -6 12 5 -4 15 -3 23 4 11 9 12 7 7 -8 -5 -18 -5 -18 9 -2 8 10 17 15
21 11 4 -4 4 1 0 12 -7 18 -6 18 9 6 15 -12 17 -12 11 4 -5 13 -4 16 4 11 8
-5 10 -2 6 8 -3 9 -1 16 5 16 6 0 11 -5 11 -12 0 -6 3 -8 6 -5 4 4 1 14 -7 24
-9 11 -10 14 -1 9 6 -4 12 -2 12 3 0 6 4 11 10 11 5 0 7 -8 4 -17 -5 -14 -4
-15 4 -4 6 8 8 21 4 29 -4 10 -1 13 7 8 8 -5 12 -3 10 5 -3 28 2 37 26 43 14
4 22 11 19 19 -2 7 6 24 18 37 13 13 21 32 20 41 -2 10 2 21 9 25 8 5 10 3 4
-7 -6 -11 -5 -12 5 -2 16 15 23 46 9 37 -5 -3 -6 -10 -3 -16 4 -7 2 -8 -5 -4
-8 5 -6 15 9 33 23 29 26 47 8 38 -7 -4 -4 1 6 9 11 9 16 16 10 16 -5 0 2 9
16 20 14 11 17 18 8 14 -20 -7 -19 20 2 39 11 9 11 8 0 -8 -14 -19 -14 -19 3
-6 12 10 14 17 7 26 -8 9 -6 15 7 19 10 4 13 10 8 14 -13 9 -15 52 -3 52 6 0
7 7 4 16 -3 8 -2 13 3 10 4 -3 8 33 8 79 0 46 -3 84 -6 83 -20 -2 -22 4 -5 18
10 8 14 13 7 10 -15 -8 -27 10 -13 19 6 4 7 12 3 18 -11 18 -9 77 2 77 7 0 7
3 0 8 -15 11 -18 34 -5 42 8 5 6 9 -5 13 -10 5 -14 3 -9 -5 4 -7 3 -8 -5 -4
-9 6 -9 11 0 22 6 8 7 14 2 14 -12 0 -12 43 1 53 6 5 2 6 -10 3 -14 -4 -21 -2
-21 8 0 9 3 13 7 11 4 -2 7 2 7 9 0 8 -6 12 -13 9 -8 -3 -11 2 -10 14 2 10 -6
26 -17 36 -11 9 -15 17 -9 17 7 0 12 5 12 11 0 5 -5 7 -12 3 -8 -5 -9 -2 -5
10 5 12 -1 20 -18 28 -19 9 -22 14 -14 25 11 12 5 17 -15 14 -5 -1 -4 5 3 13
10 11 10 19 1 33 -10 16 -10 15 -5 -4 4 -13 2 -23 -3 -23 -5 0 -9 6 -10 13 -2
29 -9 45 -31 73 -12 16 -19 22 -16 14 4 -8 -4 -2 -19 14 -30 33 -35 47 -8 23
26 -24 36 -21 12 3 -11 11 -27 20 -36 20 -13 0 -14 3 -5 14 9 11 9 16 0 22 -8
4 -9 3 -5 -4 4 -7 2 -12 -3 -12 -6 0 -11 7 -11 16 0 10 -6 14 -15 10 -8 -3
-15 -2 -15 2 0 4 -18 27 -40 51 -22 24 -37 48 -33 54 4 6 0 8 -9 4 -16 -6 -50
24 -61 53 -5 13 -6 13 -6 0 -1 -9 -9 -3 -21 15 -11 17 -20 25 -20 19 0 -5 6
-16 13 -23 10 -10 9 -11 -5 -6 -10 4 -18 17 -19 29 0 11 -3 15 -6 8 -4 -10 -9
-9 -20 5 -8 10 -11 11 -7 3 7 -13 5 -13 -9 -1 -9 7 -17 21 -17 30 0 14 -2 14
-10 1 -6 -10 -10 -11 -10 -2 0 6 -7 12 -15 12 -9 0 -27 12 -41 28 -14 15 -23
21 -19 15 8 -16 4 -16 -30 -3 -14 5 -23 14 -20 20 3 6 -1 7 -9 4 -9 -3 -16 -1
-16 6 0 6 -5 8 -12 4 -6 -4 -8 -3 -5 2 3 6 2 16 -4 24 -6 10 -9 11 -9 3 0 -20
-24 -11 -33 12 -8 20 -9 20 -23 1 -13 -18 -19 -15 -14 9 1 6 -2 7 -5 3 -4 -4
-17 -3 -28 3 -10 6 -17 7 -14 2 4 -5 -1 -10 -9 -10 -9 0 -13 6 -9 15 4 12 3
13 -10 2 -10 -8 -15 -9 -15 -2 0 7 -7 9 -17 5 -12 -5 -14 -3 -8 8 7 11 5 11
-10 -1 -11 -9 -16 -10 -11 -2 4 6 2 12 -3 12 -6 0 -11 -5 -11 -12 0 -6 -6 -4
-13 7 -8 10 -19 15 -25 11 -7 -4 -12 -2 -12 5 0 7 -3 9 -7 6 -3 -4 -13 -1 -21
6 -13 9 -14 9 -8 0 5 -9 2 -11 -8 -7 -9 3 -16 11 -16 18 0 7 -3 7 -8 1 -9 -13
-52 -15 -52 -3 0 5 -6 6 -12 2 -18 -11 -48 -12 -54 -2 -3 4 -11 5 -17 1 -20
-12 -37 -12 -37 0 0 8 -3 7 -9 -1 -4 -8 -12 -14 -16 -14 -4 0 -12 6 -16 14 -5
7 -9 8 -9 2 0 -6 -7 -11 -15 -11 -8 0 -15 5 -15 10 0 5 -8 3 -17 -4 -11 -10
-14 -10 -9 -1 8 14 4 16 -9 3z m750 -171 c3 -5 1 -10 -4 -10 -6 0 -11 5 -11
10 0 6 2 10 4 10 3 0 8 -4 11 -10z m-1494 -303 c-10 -9 -11 -8 -5 6 3 10 9 15
12 12 3 -3 0 -11 -7 -18z m1958 -111 c9 -11 9 -16 -1 -22 -7 -4 -10 -4 -6 1 4
4 3 14 -3 22 -6 7 -9 13 -6 13 2 0 10 -6 16 -14z m-4353 -558 c4 -7 3 -8 -4
-4 -7 4 -12 2 -12 -3 0 -6 -5 -11 -11 -11 -8 0 -8 5 1 15 15 18 17 18 26 3z
m974 -159 c0 -6 -4 -7 -10 -4 -5 3 -10 11 -10 16 0 6 5 7 10 4 6 -3 10 -11 10
-16z m115 -128 c3 -5 2 -12 -3 -15 -5 -3 -9 1 -9 9 0 17 3 19 12 6z m-1655
-371 c0 -5 -5 -10 -11 -10 -5 0 -7 5 -4 10 3 6 8 10 11 10 2 0 4 -4 4 -10z
m4755 -540 c3 -5 1 -10 -4 -10 -6 0 -11 5 -11 10 0 6 2 10 4 10 3 0 8 -4 11
-10z m150 -260 c3 -6 -1 -7 -9 -4 -18 7 -21 14 -7 14 6 0 13 -4 16 -10z
m-4885 -66 c0 -8 -19 -13 -24 -6 -3 5 1 9 9 9 8 0 15 -2 15 -3z m4970 -114
l13 -25 -20 20 c-11 11 -18 24 -16 28 6 10 7 9 23 -23z m75 -220 c3 -6 -1 -7
-9 -4 -18 7 -21 14 -7 14 6 0 13 -4 16 -10z m48 -195 c-3 -9 -8 -14 -10 -11
-3 3 -2 9 2 15 9 16 15 13 8 -4z m30 -1208 c3 -8 -1 -14 -8 -14 -7 0 -11 6 -8
14 3 7 6 13 8 13 2 0 5 -6 8 -13z m92 -176 c3 -5 2 -12 -3 -15 -5 -3 -9 1 -9
9 0 17 3 19 12 6z m390 -991 c-3 -5 -11 -10 -16 -10 -6 0 -7 5 -4 10 3 6 11
10 16 10 6 0 7 -4 4 -10z m-165 -144 c0 -2 -8 -10 -17 -17 -16 -13 -17 -12 -4
4 13 16 21 21 21 13z"/>
<path d="M3910 6349 c0 -5 5 -7 10 -4 6 3 10 8 10 11 0 2 -4 4 -10 4 -5 0 -10
-5 -10 -11z"/>
<path d="M3825 6300 c-4 -6 -10 -8 -14 -6 -4 3 -8 -1 -8 -9 0 -13 4 -12 19 2
18 16 22 23 14 23 -3 0 -8 -5 -11 -10z"/>
<path d="M5265 6170 c15 -17 35 -19 35 -4 0 3 -5 2 -10 -1 -6 -3 -13 1 -16 9
-3 9 -11 16 -17 16 -5 0 -2 -9 8 -20z"/>
<path d="M3614 6135 c3 -23 12 -26 13 -5 1 11 -2 20 -7 20 -4 0 -7 -7 -6 -15z"/>
<path d="M5353 6088 c16 -21 32 -36 35 -34 2 3 -7 17 -21 32 -14 15 -24 31
-22 34 2 4 -2 7 -10 7 -8 0 -2 -15 18 -39z"/>
<path d="M3566 6071 c-4 -5 -2 -12 3 -15 5 -4 12 -2 15 3 4 5 2 12 -3 15 -5 4
-12 2 -15 -3z"/>
<path d="M3430 5271 c0 -5 5 -13 10 -16 6 -3 10 -2 10 4 0 5 -4 13 -10 16 -5
3 -10 2 -10 -4z"/>
<path d="M2051 5267 c2 -1 13 -9 24 -17 19 -14 19 -14 6 3 -7 9 -18 17 -24 17
-6 0 -8 -1 -6 -3z"/>
<path d="M2836 5188 c3 -5 10 -6 15 -3 13 9 11 12 -6 12 -8 0 -12 -4 -9 -9z"/>
<path d="M2176 5133 c-6 -14 -5 -15 5 -6 7 7 10 15 7 18 -3 3 -9 -2 -12 -12z"/>
<path d="M820 5120 c8 -5 10 -10 4 -10 -7 0 -15 -8 -18 -17 -6 -15 -5 -15 13
1 21 19 20 36 -2 36 -7 0 -6 -4 3 -10z"/>
<path d="M2205 5101 c-6 -11 13 -26 22 -17 4 3 1 6 -6 6 -7 0 -9 5 -6 10 3 6
4 10 1 10 -3 0 -7 -4 -11 -9z"/>
<path d="M771 5061 c-10 -6 -9 -10 3 -14 8 -3 18 -2 21 3 8 13 -9 20 -24 11z"/>
<path d="M5505 4721 c-3 -5 0 -13 6 -17 7 -4 9 -3 5 4 -3 5 0 13 6 15 9 4 10
6 1 6 -6 1 -14 -3 -18 -8z"/>
<path d="M5445 3980 c-3 -5 -1 -10 4 -10 6 0 11 5 11 10 0 6 -2 10 -4 10 -3 0
-8 -4 -11 -10z"/>
<path d="M727 3599 c4 -13 8 -18 11 -10 2 7 -1 18 -6 23 -8 8 -9 4 -5 -13z"/>
<path d="M5611 2243 c6 -7 17 -13 23 -12 7 0 6 2 -2 6 -6 2 -10 8 -8 12 3 4
-1 8 -9 8 -11 0 -12 -4 -4 -14z"/>
<path d="M1635 1740 c-3 -5 -1 -10 4 -10 6 0 11 5 11 10 0 6 -2 10 -4 10 -3 0
-8 -4 -11 -10z"/>
<path d="M1985 1679 c-4 -6 -5 -12 -2 -15 2 -3 7 2 10 11 7 17 1 20 -8 4z"/>
<path d="M2010 1651 c0 -6 4 -13 10 -16 6 -3 7 1 4 9 -7 18 -14 21 -14 7z"/>
<path d="M5905 691 c-3 -5 -2 -12 3 -15 5 -3 9 1 9 9 0 17 -3 19 -12 6z"/>
<path d="M5843 645 c0 -8 4 -12 9 -9 5 3 6 10 3 15 -9 13 -12 11 -12 -6z"/>
<path d="M5558 523 c7 -3 16 -2 19 1 4 3 -2 6 -13 5 -11 0 -14 -3 -6 -6z"/>
<path d="M2356 443 c-6 -14 -5 -15 5 -6 7 7 10 15 7 18 -3 3 -9 -2 -12 -12z"/>
</g>
</svg>
